<?xml version="1.0" standalone="no"?>
<!DOCTYPE svg PUBLIC "-//W3C//DTD SVG 20010904//EN"
 "http://www.w3.org/TR/2001/REC-SVG-20010904/DTD/svg10.dtd">
<svg version="1.0" xmlns="http://www.w3.org/2000/svg"
 width="960.000000pt" height="960.000000pt" viewBox="0 0 960.000000 960.000000"
 preserveAspectRatio="xMidYMid meet">

<g transform="translate(0.000000,960.000000) scale(0.100000,-0.100000)"
fill="#000000" stroke="none">
<path d="M0 4800 l0 -4800 4800 0 4800 0 0 4800 0 4800 -4800 0 -4800 0 0
-4800z m2790 2202 c271 -64 456 -164 640 -351 153 -154 252 -332 304 -542 21
-87 46 -286 46 -374 0 -334 -169 -683 -421 -870 l-56 -41 63 -52 c68 -55 167
-167 230 -259 127 -184 193 -427 181 -663 -18 -350 -120 -613 -328 -843 -335
-373 -955 -501 -1453 -300 -359 145 -611 426 -715 797 -43 153 -54 255 -48
441 4 140 9 173 35 262 58 198 164 375 312 523 l95 95 -85 83 c-136 132 -237
289 -300 461 -87 238 -80 570 16 861 18 53 101 225 118 243 6 7 24 32 40 56
79 122 269 282 431 364 118 59 301 113 445 131 89 11 367 -3 450 -22z m3445
18 c122 -12 223 -29 348 -60 96 -24 208 -59 222 -70 6 -4 28 -13 50 -20 79
-25 300 -142 415 -221 343 -235 653 -617 789 -974 13 -33 27 -69 32 -80 15
-34 57 -168 64 -207 6 -34 5 -38 -18 -43 -26 -7 -195 -2 -200 6 -2 2 -11 31
-21 64 -148 493 -515 932 -981 1171 -94 48 -222 104 -239 104 -5 0 -22 6 -39
14 -48 21 -178 53 -307 75 -446 76 -913 -11 -1315 -246 -216 -127 -427 -316
-572 -513 -26 -36 -50 -67 -53 -70 -35 -31 -176 -301 -221 -424 -75 -203 -129
-491 -129 -686 0 -207 56 -504 130 -695 17 -44 36 -93 42 -110 6 -16 26 -56
45 -88 18 -32 33 -61 33 -64 0 -15 131 -208 195 -288 117 -145 294 -306 440
-400 80 -52 255 -149 291 -163 16 -6 70 -26 119 -45 108 -41 318 -92 435 -107
109 -13 383 -13 485 0 44 6 88 12 98 13 20 2 28 -14 65 -133 11 -36 17 -69 12
-73 -33 -35 -512 -54 -700 -29 -289 39 -581 142 -838 293 -245 145 -469 347
-640 577 -140 189 -284 474 -337 665 -8 29 -21 77 -29 107 -43 154 -60 300
-60 525 0 129 5 257 13 310 20 141 86 398 126 490 8 17 27 62 44 100 53 124
168 327 200 355 4 3 19 25 35 50 88 136 368 413 499 494 18 11 34 23 37 26 3
3 34 24 70 45 36 22 75 45 85 52 39 24 211 105 280 133 304 120 667 171 1000
140z m165 -369 c142 -30 178 -40 332 -99 80 -31 261 -124 289 -148 8 -8 19
-14 23 -14 9 0 166 -122 220 -170 148 -134 258 -267 357 -432 48 -80 129 -239
129 -252 0 -3 5 -17 11 -33 7 -15 22 -56 34 -90 18 -54 19 -63 6 -68 -19 -7
-176 -4 -189 4 -6 3 -29 53 -53 111 -87 214 -203 385 -378 558 -117 115 -209
183 -356 265 -275 152 -610 224 -924 197 -69 -6 -135 -13 -147 -16 -18 -5 -24
3 -43 48 -12 29 -30 71 -41 93 -14 30 -16 41 -7 46 7 4 55 12 107 18 52 6 109
13 125 15 17 3 104 3 195 0 133 -3 194 -9 310 -33z m-1269 -321 c35 -78 36
-86 21 -98 -9 -7 -57 -42 -107 -79 -49 -36 -125 -100 -168 -142 -81 -79 -211
-245 -266 -341 -18 -30 -36 -62 -41 -70 -41 -66 -104 -239 -139 -377 -110
-434 -25 -916 227 -1298 195 -294 497 -530 825 -644 102 -36 267 -76 352 -86
88 -10 317 -8 415 4 188 24 426 104 588 198 46 26 92 53 103 59 74 42 249 198
340 304 35 41 66 77 69 80 3 3 28 39 55 80 64 99 125 216 165 318 l33 82 103
0 c57 0 104 -4 104 -8 0 -5 -15 -52 -34 -104 -108 -302 -299 -578 -546 -788
-55 -46 -167 -130 -174 -130 -2 0 -27 -15 -54 -34 -137 -92 -399 -195 -598
-235 -202 -41 -509 -46 -692 -11 -111 21 -288 71 -367 103 -68 28 -275 137
-335 177 -278 185 -494 435 -645 745 -188 388 -233 830 -129 1248 25 98 29
111 79 242 87 225 233 445 416 627 90 90 275 238 297 238 5 0 15 7 22 15 24
28 42 11 81 -75z m1119 -11 c93 -11 200 -37 300 -74 64 -22 299 -139 310 -153
3 -4 21 -18 40 -31 133 -92 287 -249 378 -386 50 -76 162 -290 162 -311 0 -20
-26 -23 -154 -21 l-120 2 -35 65 c-127 238 -327 432 -561 544 -149 72 -382
126 -541 126 -88 0 -237 -24 -344 -55 -391 -114 -709 -425 -833 -815 -46 -145
-56 -210 -55 -385 0 -166 10 -227 64 -393 98 -299 341 -571 642 -718 274 -133
616 -155 912 -59 216 70 446 228 581 400 59 75 104 142 104 154 0 6 3 11 8 11
4 0 17 23 30 50 l23 50 140 0 140 0 -6 -22 c-13 -45 -77 -174 -127 -255 -147
-240 -398 -462 -643 -567 -49 -21 -104 -45 -121 -52 -120 -52 -424 -100 -564
-90 -188 15 -370 53 -497 105 -122 50 -257 122 -283 151 -3 3 -31 22 -63 43
-84 55 -253 228 -330 338 -186 267 -269 537 -269 869 0 300 68 542 222 786
209 333 524 565 900 665 140 37 417 50 590 28z m-10 -374 c122 -24 185 -45
285 -95 123 -62 126 -64 201 -122 111 -85 230 -225 296 -345 l18 -33 -145 0
c-90 0 -145 4 -145 10 0 23 -149 165 -224 214 -161 105 -305 149 -486 149
-247 0 -449 -81 -621 -248 -147 -143 -244 -331 -267 -519 l-7 -59 -115 -33
c-63 -18 -118 -30 -122 -26 -10 10 9 191 27 263 24 93 64 199 98 259 168 301
405 487 727 571 155 40 326 45 480 14z m1740 -898 c0 -5 21 -61 46 -125 25
-65 59 -150 75 -191 16 -40 27 -77 24 -81 -3 -4 -22 -7 -42 -7 -29 2 -40 7
-48 25 -9 20 -17 22 -78 22 -63 0 -68 -2 -77 -25 -8 -21 -16 -25 -48 -25 -21
0 -41 3 -45 6 -6 6 15 65 97 274 30 74 57 144 61 155 6 20 7 20 21 1 8 -11 14
-24 14 -29z m-1772 -9 l3 -38 -45 0 -46 0 -2 -177 -3 -178 -38 0 -39 0 2 177
1 177 -47 3 c-47 3 -48 4 -47 36 1 17 2 34 2 37 1 3 58 4 129 3 l127 -3 3 -37z
m130 -51 l3 -88 82 3 82 3 0 85 0 85 40 0 40 0 0 -215 0 -215 -40 0 -40 0 0
85 0 85 -82 3 -82 3 -3 -88 -3 -88 -37 -3 -38 -3 0 221 0 221 38 -3 37 -3 3
-88z m632 53 l0 -40 -104 0 c-101 0 -105 -1 -108 -22 -2 -13 -2 -35 1 -50 3
-27 4 -27 89 -30 l86 -3 0 -35 0 -35 -87 -3 -87 -3 0 -49 0 -50 105 0 105 0 0
-40 0 -41 -147 3 -148 3 -3 205 c-1 112 0 210 2 217 4 10 42 13 151 13 l145 0
0 -40z m350 -170 c0 -115 0 -213 0 -217 0 -5 -17 -8 -37 -8 l-38 0 -3 218 -2
217 40 0 40 0 0 -210z m389 192 c52 -26 60 -46 32 -76 l-23 -25 -37 20 c-96
52 -201 -10 -201 -120 0 -53 30 -105 73 -127 38 -20 110 -14 138 12 19 17 21
17 46 -8 34 -34 25 -54 -34 -80 -37 -16 -60 -19 -114 -16 -81 6 -123 33 -166
105 -22 39 -27 58 -26 112 1 100 43 173 120 207 43 19 152 17 192 -4z m756
-24 c0 -21 -4 -38 -10 -39 -5 0 -53 0 -106 1 l-96 2 -2 -51 -1 -51 90 0 90 0
0 -40 0 -40 -90 0 -90 0 0 -90 0 -90 -40 0 -39 0 -3 216 c-2 119 -1 218 1 220
3 3 70 3 150 2 l145 -3 1 -37z m353 19 c2 -10 1 -28 -2 -40 -5 -21 -11 -22
-108 -22 l-103 0 -3 -47 -3 -48 90 0 91 0 0 -40 0 -40 -90 0 -90 0 0 -50 0
-49 108 -3 107 -3 -1 -30 c-1 -16 -2 -33 -3 -37 -1 -5 -66 -8 -146 -8 l-145 0
0 220 0 221 147 -3 c134 -3 148 -5 151 -21z m-1785 -744 c-27 -70 -142 -222
-230 -303 -140 -128 -301 -218 -478 -266 -133 -35 -358 -45 -493 -20 -219 40
-424 147 -585 305 -75 73 -167 189 -167 210 0 9 26 18 169 57 l64 18 21 -27
c109 -140 271 -250 451 -307 88 -28 327 -39 414 -20 129 28 267 88 356 155 66
49 149 131 182 178 l26 37 138 0 c128 0 138 -1 132 -17z m1123 -30 c-13 -69
-85 -270 -137 -379 -125 -263 -323 -528 -530 -709 -86 -76 -104 -91 -154 -125
-27 -19 -52 -37 -55 -40 -22 -22 -222 -140 -237 -140 -11 0 -73 173 -73 203 0
8 12 19 28 26 33 15 239 152 267 178 11 10 59 52 106 95 46 42 112 108 144
148 33 40 70 84 83 98 111 131 298 501 328 650 l7 32 114 0 115 0 -6 -37z
m-5325 -2127 c9 -31 -4 -41 -48 -37 l-32 2 -3 -153 -3 -153 -35 0 -35 0 -3
153 -3 152 -44 0 c-43 0 -45 1 -45 28 0 16 2 31 4 33 2 2 57 3 122 2 118 -2
119 -2 125 -27z m122 25 c4 -1 7 -32 7 -71 l0 -70 80 0 80 0 0 69 c0 69 0 69
30 73 16 3 34 2 38 -1 5 -3 9 -87 8 -186 l-1 -180 -37 -3 -38 -3 0 75 0 76
-80 0 -79 0 -3 -72 -3 -73 -35 0 -35 0 -3 179 c-2 118 1 182 8 186 6 4 21 5
33 4 12 -1 25 -3 30 -3z m607 -37 l0 -34 -100 0 -100 0 0 -40 0 -40 80 0 80 0
0 -35 0 -35 -80 0 -80 0 0 -35 0 -34 98 -3 97 -3 0 -35 0 -35 -135 0 -135 0
-3 182 -2 182 132 3 c73 2 136 2 141 0 4 -2 7 -19 7 -38z m362 36 c20 -6 46
-22 58 -37 25 -32 27 -104 3 -128 -13 -13 -14 -18 -3 -25 7 -4 15 -30 18 -58
4 -44 1 -53 -26 -83 -28 -32 -35 -34 -92 -34 -57 0 -64 2 -91 33 -33 37 -39
93 -13 130 14 20 14 24 0 44 -9 12 -16 40 -16 61 0 55 45 96 115 106 6 0 27
-4 47 -9z m308 0 c10 0 32 -13 49 -29 l31 -29 0 -119 c0 -133 -8 -155 -66
-179 -69 -29 -146 -5 -170 52 -17 40 -19 200 -4 240 17 44 85 79 128 68 8 -2
22 -4 32 -4z m191 0 c17 0 19 -8 19 -60 l0 -60 -40 0 -40 0 0 58 c0 62 6 76
28 67 7 -3 22 -5 33 -5z m857 -19 c23 -12 42 -24 42 -28 0 -10 -43 -43 -57
-43 -8 0 -28 7 -45 16 -53 27 -141 -1 -166 -54 -50 -107 51 -201 171 -158 48
17 49 17 73 -5 28 -27 24 -35 -30 -60 -101 -46 -240 -6 -283 81 -52 101 -14
213 89 261 55 25 145 21 206 -10z m267 -62 c22 -50 59 -132 81 -182 23 -51 40
-95 37 -99 -9 -17 -71 -8 -84 12 -11 15 -30 21 -76 25 -58 5 -63 4 -79 -20
-12 -18 -25 -25 -50 -25 -41 0 -49 12 -30 47 14 26 118 262 137 311 5 12 12
22 16 22 5 0 26 -41 48 -91z m436 81 c4 0 6 -15 4 -32 l-2 -33 -102 -3 -101
-3 0 -34 0 -33 63 -7 c34 -4 72 -5 82 -3 17 2 20 -3 20 -32 l0 -35 -82 -3 -83
-3 0 -75 0 -75 -37 3 -38 3 -3 175 c-1 96 -1 179 1 185 4 8 116 10 278 5z
m332 0 c4 0 7 -16 7 -35 l0 -35 -101 0 -100 0 3 -37 3 -38 80 -1 80 -1 0 -34
0 -34 -82 -3 -83 -3 0 -34 0 -34 98 -3 97 -3 0 -35 0 -35 -138 0 -139 0 2 179
c0 99 2 182 4 185 3 5 175 5 269 1z m-1423 -186 l0 -185 -37 3 -38 3 -3 183
-2 182 40 0 40 0 0 -186z m-270 36 c26 -26 26 -60 1 -60 -10 0 -24 7 -31 15
-16 20 -49 19 -57 -1 -7 -19 13 -34 45 -34 31 0 62 -35 62 -70 0 -17 -9 -39
-20 -50 -39 -39 -140 -17 -140 31 0 27 27 35 50 14 21 -19 55 -17 55 5 0 8
-17 21 -39 28 -54 18 -66 29 -66 66 0 34 15 60 40 69 34 12 81 6 100 -13z"/>
<path d="M2352 6314 c-241 -64 -398 -263 -418 -529 -3 -53 -2 -114 5 -147 11
-63 59 -191 73 -196 4 -2 8 -8 8 -13 0 -18 63 -94 111 -134 120 -100 241 -141
397 -132 159 8 251 48 368 159 121 115 174 243 174 419 0 283 -167 508 -425
574 -74 19 -222 18 -293 -1z"/>
<path d="M2362 4450 c-96 -25 -163 -62 -237 -131 -75 -71 -122 -148 -153 -252
-21 -72 -23 -95 -18 -187 13 -230 108 -390 289 -485 86 -46 160 -65 252 -65
101 0 166 15 255 58 318 156 408 619 173 885 -87 97 -166 146 -290 178 -95 24
-177 23 -271 -1z"/>
<path d="M7937 4829 c-10 -28 -17 -52 -15 -54 2 -2 19 -5 38 -6 40 -4 41 3 12
71 l-17 41 -18 -52z"/>
<path d="M3858 2113 c-34 -9 -33 -71 1 -75 45 -4 71 9 71 37 0 27 -37 47 -72
38z"/>
<path d="M3840 1941 c-5 -11 -7 -26 -4 -34 6 -18 46 -30 68 -21 21 8 30 42 16
59 -18 22 -67 19 -80 -4z"/>
<path d="M4150 2101 c-5 -11 -10 -56 -10 -101 0 -91 10 -120 43 -120 40 0 47
18 47 120 0 61 -4 100 -12 108 -18 18 -56 14 -68 -7z"/>
<path d="M5480 1972 c-8 -20 -16 -40 -18 -44 -2 -5 15 -8 37 -8 l41 0 -15 38
c-23 54 -29 56 -45 14z"/>
</g>
</svg>
